<svg version="1.1" id="Layer_1" xmlns="http://www.w3.org/2000/svg" x="0" y="0" viewBox="0 0 33.6 33.6" xml:space="preserve"><style>.st0{fill:#fff}</style><path class="st0" d="M16.8 3c4.5 0 5 0 6.8.1 1.6.1 2.5.3 3.1.6.8.3 1.4.7 1.9 1.3.6.6 1 1.1 1.3 1.9.2.6.5 1.5.6 3.1.1 1.8.1 2.3.1 6.8s0 5-.1 6.8c-.1 1.6-.3 2.5-.6 3.1-.3.8-.7 1.3-1.3 1.9-.6.6-1.1 1-1.9 1.3-.6.2-1.5.5-3.1.6-1.8.1-2.3.1-6.8.1s-5 0-6.8-.1c-1.6-.1-2.5-.3-3.1-.6-.8-.3-1.3-.7-1.9-1.3-.6-.6-1-1.1-1.3-1.9-.2-.6-.5-1.5-.6-3.1-.1-1.8-.1-2.3-.1-6.8s0-5 .1-6.8c.1-1.6.3-2.5.6-3.1C4 6.1 4.4 5.5 5 5c.6-.6 1.1-1 1.9-1.3.6-.2 1.5-.5 3.1-.6 1.8-.1 2.3-.1 6.8-.1m0-3c-4.6 0-5.1 0-6.9.1-1.8.1-3 .4-4.1.8-1.1.4-2 1-3 1.9-.9.9-1.5 1.9-1.9 3C.5 6.9.2 8.1.1 9.9 0 11.7 0 12.2 0 16.8c0 4.6 0 5.1.1 6.9.1 1.8.4 3 .8 4.1.4 1.1 1 2 1.9 3 .9.9 1.9 1.5 3 1.9 1.1.4 2.3.7 4.1.8 1.8.1 2.4.1 6.9.1s5.1 0 6.9-.1c1.8-.1 3-.4 4.1-.8 1.1-.4 2-1 3-1.9.9-.9 1.5-1.9 1.9-3 .4-1.1.7-2.3.8-4.1.1-1.8.1-2.4.1-6.9s0-5.1-.1-6.9c-.1-1.8-.4-3-.8-4.1-.4-1.1-1-2-1.9-3-.9-.9-1.9-1.5-3-1.9-1.1-.4-2.3-.7-4.1-.8-1.8-.1-2.3-.1-6.9-.1z"/><path class="st0" d="M16.8 8.2c-4.8 0-8.6 3.9-8.6 8.6s3.9 8.6 8.6 8.6 8.6-3.9 8.6-8.6-3.8-8.6-8.6-8.6zm0 14.2c-3.1 0-5.6-2.5-5.6-5.6s2.5-5.6 5.6-5.6 5.6 2.5 5.6 5.6-2.5 5.6-5.6 5.6z"/><circle class="st0" cx="25.8" cy="7.8" r="2"/></svg>